<?xml version="1.0" encoding="UTF-8"?>
<svg id="Layer_1" xmlns="http://www.w3.org/2000/svg" xmlns:xlink="http://www.w3.org/1999/xlink" version="1.1" viewBox="0 0 1032.84 383.83">
  <!-- Generator: Adobe Illustrator 30.2.1, SVG Export Plug-In . SVG Version: 2.1.1 Build 1)  -->
  <defs>
    <style>
      .st0 {
        fill: url(#linear-gradient);
      }
    </style>
    <linearGradient id="linear-gradient" x1="516.42" y1="89.88" x2="516.42" y2="353.35" gradientUnits="userSpaceOnUse">
      <stop offset="0" stop-color="#6763b2"/>
      <stop offset=".48" stop-color="#847edd"/>
      <stop offset="1" stop-color="#938df8"/>
    </linearGradient>
  </defs>
  <path class="st0" d="M695.55,383.83h-53.38c-22.09,0-40-17.91-40-40V30.73h53.38c22.09,0,40,17.91,40,40v313.1ZM203.9,137.05C79.08,70.85,0,163.56,0,163.56v180.26c0,22.09,17.91,40,40,40h53.38v-180.58c25.73-46.23,57.17,0,57.17,0v140.58c0,22.09,17.91,40,40,40h53.38v-188.66c44.78-31.44,57.17,8.08,57.17,8.08v140.58c0,22.09,17.91,40,40,40h53.38v-180.58c-6.67-105.31-132.44-94.78-190.56-66.2ZM892.78,103.7c-77.35,0-140.06,62.71-140.06,140.06s62.71,140.06,140.06,140.06,140.06-62.71,140.06-140.06-62.71-140.06-140.06-140.06ZM892.78,350.09c-58.72,0-106.33-47.6-106.33-106.33s47.6-106.33,106.33-106.33,106.33,47.6,106.33,106.33-47.6,106.33-106.33,106.33ZM892.78,286.95c-17.35,0-32.06-7.82-37.26-18.67-2.47-5.17-9.51-8.62-17.35-8.62h0c-12.53,0-21.38,8.54-17.39,16.8,10.1,20.91,38.52,35.97,72,35.97s61.9-15.06,72-35.97c3.99-8.26-4.86-16.8-17.39-16.8h0c-7.84,0-14.87,3.45-17.35,8.62-5.19,10.85-19.91,18.67-37.26,18.67ZM854.5,175.09c-15.92,0-29.42,10.3-34.22,24.6-1.9,5.65,2.31,11.49,8.27,11.49h0c3.73,0,7.07-2.36,8.25-5.89,2.47-7.42,9.46-12.76,17.71-12.76s15.24,5.35,17.71,12.76c1.18,3.54,4.52,5.89,8.25,5.89h0c5.96,0,10.16-5.84,8.27-11.49-4.8-14.3-18.31-24.6-34.22-24.6ZM931.06,175.09c-15.92,0-29.42,10.3-34.22,24.6-1.9,5.65,2.31,11.49,8.27,11.49h0c3.73,0,7.07-2.36,8.25-5.89,2.47-7.42,9.46-12.76,17.71-12.76s15.24,5.35,17.71,12.76c1.18,3.54,4.52,5.89,8.25,5.89h0c5.96,0,10.16-5.84,8.27-11.49-4.8-14.3-18.31-24.6-34.22-24.6ZM545.01,161.62c0-22.09-17.91-40-40-40h-53.38v222.21c0,22.09,17.91,40,40,40h53.38v-222.21ZM498.32,0c-25.78,0-46.69,20.9-46.69,46.69s20.9,46.69,46.69,46.69,46.69-20.9,46.69-46.69S524.1,0,498.32,0Z"/>
</svg>